# xmcd CD database file
#
# Track frame offsets:
#	150
#	18975
#	49241
#	61816
#	82343
#	104677
#	113288
#	129945
#	152841
#	171003
#
# Disc length: 2577 seconds
#
# Revision: 0
# Processed by: cddbd v1.5.2PL0 Copyright (c) Steve Scherf et al.
# Submitted via: CDex 1.51
#
DISCID=7a0a0f0a
DTITLE=Charlie Faye - Last Kids In The Bar
DYEAR=2006
DGENRE=Country
TTITLE0=Goin' Grey
TTITLE1=Orion
TTITLE2=The Scene
TTITLE3=Never Forget
TTITLE4=Cowboys, Pirates, and Pinball Machines
TTITLE5=Last Kids in the Bar
TTITLE6=Lady of the Leading Man
TTITLE7=Summertime
TTITLE8=On That Train
TTITLE9=What Happens to a Woman
EXTD=YEAR: 2006
EXTT0=
EXTT1=
EXTT2=
EXTT3=
EXTT4=
EXTT5=
EXTT6=
EXTT7=
EXTT8=
EXTT9=
PLAYORDER=
